<?xml version="1.0" encoding="UTF-8" standalone="no"?><!-- Generator: Gravit.io --><svg xmlns="http://www.w3.org/2000/svg" xmlns:xlink="http://www.w3.org/1999/xlink" style="isolation:isolate" viewBox="0 0 246 246" width="246pt" height="246pt"><defs><clipPath id="_clipPath_MqwLOddbxhDtb9yBPzAlpKI1DM83pcUK"><rect width="246" height="246"/></clipPath></defs><g clip-path="url(#_clipPath_MqwLOddbxhDtb9yBPzAlpKI1DM83pcUK)"><polygon points="0,124.635,61.566,18,184.698,18,246.264,124.635,184.698,231.27,61.566,231.27" fill="rgb(41,37,45)"/><g><mask id="_mask_QJNZQMXT7VvLxLSbnE199rhuKWpQZodG" x="-200%" y="-200%" width="400%" height="400%"><rect x="-200%" y="-200%" width="400%" height="400%" style="fill:white;"/><path d=" M 189.32 166.63 C 189.32 166.63 162.81 172.26 141.09 159.91 C 119.37 147.56 110.65 121.9 110.65 121.9 C 110.65 121.9 137.16 116.27 158.88 128.62 C 180.6 140.97 189.32 166.63 189.32 166.63 Z " fill="black" stroke="none"/></mask><path d=" M 189.32 166.63 C 189.32 166.63 162.81 172.26 141.09 159.91 C 119.37 147.56 110.65 121.9 110.65 121.9 C 110.65 121.9 137.16 116.27 158.88 128.62 C 180.6 140.97 189.32 166.63 189.32 166.63 Z " fill="none" mask="url(#_mask_QJNZQMXT7VvLxLSbnE199rhuKWpQZodG)" vector-effect="non-scaling-stroke" stroke-width="16" stroke="rgb(243,0,1)" stroke-linejoin="miter" stroke-linecap="butt" stroke-miterlimit="10"/><path d=" M 189.32 166.63 C 189.32 166.63 162.81 172.26 141.09 159.91 C 119.37 147.56 110.65 121.9 110.65 121.9 C 110.65 121.9 137.16 116.27 158.88 128.62 C 180.6 140.97 189.32 166.63 189.32 166.63 Z " fill="none"/><mask id="_mask_mIGSu551nZLO72alsclNV1NJM1fUtv4K" x="-200%" y="-200%" width="400%" height="400%"><rect x="-200%" y="-200%" width="400%" height="400%" style="fill:white;"/><path d=" M 123.82 56.51 C 123.82 56.51 141.95 76.65 142.11 101.64 C 142.27 126.63 124.41 147.01 124.41 147.01 C 124.41 147.01 106.28 126.87 106.12 101.88 C 105.96 76.89 123.82 56.51 123.82 56.51 Z " fill="black" stroke="none"/></mask><path d=" M 123.82 56.51 C 123.82 56.51 141.95 76.65 142.11 101.64 C 142.27 126.63 124.41 147.01 124.41 147.01 C 124.41 147.01 106.28 126.87 106.12 101.88 C 105.96 76.89 123.82 56.51 123.82 56.51 Z " fill="none" mask="url(#_mask_mIGSu551nZLO72alsclNV1NJM1fUtv4K)" vector-effect="non-scaling-stroke" stroke-width="16" stroke="rgb(243,0,1)" stroke-linejoin="miter" stroke-linecap="butt" stroke-miterlimit="10"/><path d=" M 123.82 56.51 C 123.82 56.51 141.95 76.65 142.11 101.64 C 142.27 126.63 124.41 147.01 124.41 147.01 C 124.41 147.01 106.28 126.87 106.12 101.88 C 105.96 76.89 123.82 56.51 123.82 56.51 Z " fill="none"/><mask id="_mask_WOlVWceDaMYRecRjw0uxK4iGWyzWnNwX" x="-200%" y="-200%" width="400%" height="400%"><rect x="-200%" y="-200%" width="400%" height="400%" style="fill:white;"/><path d=" M 60.72 167.49 C 60.72 167.49 69.1 141.72 90.66 129.08 C 112.22 116.44 138.8 121.73 138.8 121.73 C 138.8 121.73 130.42 147.5 108.86 160.14 C 87.3 172.78 60.72 167.49 60.72 167.49 Z " fill="black" stroke="none"/></mask><path d=" M 60.72 167.49 C 60.72 167.49 69.1 141.72 90.66 129.08 C 112.22 116.44 138.8 121.73 138.8 121.73 C 138.8 121.73 130.42 147.5 108.86 160.14 C 87.3 172.78 60.72 167.49 60.72 167.49 Z " fill="none" mask="url(#_mask_WOlVWceDaMYRecRjw0uxK4iGWyzWnNwX)" vector-effect="non-scaling-stroke" stroke-width="16" stroke="rgb(243,0,1)" stroke-linejoin="miter" stroke-linecap="butt" stroke-miterlimit="10"/><path d=" M 60.72 167.49 C 60.72 167.49 69.1 141.72 90.66 129.08 C 112.22 116.44 138.8 121.73 138.8 121.73 C 138.8 121.73 130.42 147.5 108.86 160.14 C 87.3 172.78 60.72 167.49 60.72 167.49 Z " fill="none"/><circle vector-effect="non-scaling-stroke" cx="124.85" cy="130.89" r="37.09" fill="none" stroke-width="8" stroke="rgb(243,0,1)" stroke-linejoin="miter" stroke-linecap="butt" stroke-miterlimit="10"/></g></g></svg>