<?xml version="1.0" encoding="UTF-8" standalone="no"?><!-- Generator: Gravit.io --><svg xmlns="http://www.w3.org/2000/svg" xmlns:xlink="http://www.w3.org/1999/xlink" style="isolation:isolate" viewBox="0 0 246 246" width="246pt" height="246pt"><defs><clipPath id="_clipPath_uSQR3LCI9dyamg8jSYKMZb8Q8vPtCAcj"><rect width="246" height="246"/></clipPath></defs><g clip-path="url(#_clipPath_uSQR3LCI9dyamg8jSYKMZb8Q8vPtCAcj)"><rect x="0" y="0" width="246" height="246" transform="matrix(1,0,0,1,0,0)" fill="rgb(41,37,45)"/><clipPath id="_clipPath_y3mSIwcKx55QQqReAp5H2eL4KSpaCGjk"><rect x="0" y="0" width="246" height="246" transform="matrix(1,0,0,1,0,0)" fill="rgb(255,255,255)"/></clipPath><g clip-path="url(#_clipPath_y3mSIwcKx55QQqReAp5H2eL4KSpaCGjk)"><g><g><clipPath id="_clipPath_FVUxGQyiSYB1RzOqqLHVMM5a0Dz8Hrug"><path d=" M -492 -504 L 492 -504 L 492 480 L -492 480 L -492 -504 Z  M 187.3 165.081 C 187.3 165.081 160.79 170.711 139.07 158.361 C 117.35 146.011 108.63 120.351 108.63 120.351 C 108.63 120.351 135.14 114.721 156.86 127.071 C 178.58 139.421 187.3 165.081 187.3 165.081 Z " fill-rule="evenodd" fill="rgb(255,255,255)"/></clipPath><g clip-path="url(#_clipPath_FVUxGQyiSYB1RzOqqLHVMM5a0Dz8Hrug)"><mask id="_mask_iiPoqsoX9ZWZ4aBB1roJDeimZOB9ik6h" x="-200%" y="-200%" width="400%" height="400%"><rect x="-200%" y="-200%" width="400%" height="400%" style="fill:white;"/><path d=" M 187.3 165.081 C 187.3 165.081 160.79 170.711 139.07 158.361 C 117.35 146.011 108.63 120.351 108.63 120.351 C 108.63 120.351 135.14 114.721 156.86 127.071 C 178.58 139.421 187.3 165.081 187.3 165.081 Z " fill="black" stroke="none"/></mask><path d=" M 187.3 165.081 C 187.3 165.081 160.79 170.711 139.07 158.361 C 117.35 146.011 108.63 120.351 108.63 120.351 C 108.63 120.351 135.14 114.721 156.86 127.071 C 178.58 139.421 187.3 165.081 187.3 165.081 Z " fill="none" mask="url(#_mask_iiPoqsoX9ZWZ4aBB1roJDeimZOB9ik6h)" vector-effect="non-scaling-stroke" stroke-width="16" stroke="rgb(243,0,1)" stroke-opacity="100" stroke-linejoin="miter" stroke-linecap="butt" stroke-miterlimit="10"/><path d=" M 187.3 165.081 C 187.3 165.081 160.79 170.711 139.07 158.361 C 117.35 146.011 108.63 120.351 108.63 120.351 C 108.63 120.351 135.14 114.721 156.86 127.071 C 178.58 139.421 187.3 165.081 187.3 165.081 Z " fill="none"/></g><path d=" M 187.3 165.081 C 187.3 165.081 160.79 170.711 139.07 158.361 C 117.35 146.011 108.63 120.351 108.63 120.351 C 108.63 120.351 135.14 114.721 156.86 127.071 C 178.58 139.421 187.3 165.081 187.3 165.081 Z " fill="none"/><clipPath id="_clipPath_7lsBii8g7BSAH2JU9RoEi4R0nzqPjuqs"><path d=" M -492 -504 L 492 -504 L 492 480 L -492 480 L -492 -504 Z  M 121.8 54.961 C 121.8 54.961 139.93 75.101 140.09 100.091 C 140.25 125.081 122.39 145.461 122.39 145.461 C 122.39 145.461 104.26 125.321 104.1 100.331 C 103.94 75.341 121.8 54.961 121.8 54.961 Z " fill-rule="evenodd" fill="rgb(255,255,255)"/></clipPath><g clip-path="url(#_clipPath_7lsBii8g7BSAH2JU9RoEi4R0nzqPjuqs)"><mask id="_mask_Xm6bC3PZmAGmHDcqAE5peJNK7nmK0AWB" x="-200%" y="-200%" width="400%" height="400%"><rect x="-200%" y="-200%" width="400%" height="400%" style="fill:white;"/><path d=" M 121.8 54.961 C 121.8 54.961 139.93 75.101 140.09 100.091 C 140.25 125.081 122.39 145.461 122.39 145.461 C 122.39 145.461 104.26 125.321 104.1 100.331 C 103.94 75.341 121.8 54.961 121.8 54.961 Z " fill="black" stroke="none"/></mask><path d=" M 121.8 54.961 C 121.8 54.961 139.93 75.101 140.09 100.091 C 140.25 125.081 122.39 145.461 122.39 145.461 C 122.39 145.461 104.26 125.321 104.1 100.331 C 103.94 75.341 121.8 54.961 121.8 54.961 Z " fill="none" mask="url(#_mask_Xm6bC3PZmAGmHDcqAE5peJNK7nmK0AWB)" vector-effect="non-scaling-stroke" stroke-width="16" stroke="rgb(243,0,1)" stroke-opacity="100" stroke-linejoin="miter" stroke-linecap="butt" stroke-miterlimit="10"/><path d=" M 121.8 54.961 C 121.8 54.961 139.93 75.101 140.09 100.091 C 140.25 125.081 122.39 145.461 122.39 145.461 C 122.39 145.461 104.26 125.321 104.1 100.331 C 103.94 75.341 121.8 54.961 121.8 54.961 Z " fill="none"/></g><path d=" M 121.8 54.961 C 121.8 54.961 139.93 75.101 140.09 100.091 C 140.25 125.081 122.39 145.461 122.39 145.461 C 122.39 145.461 104.26 125.321 104.1 100.331 C 103.94 75.341 121.8 54.961 121.8 54.961 Z " fill="none"/><clipPath id="_clipPath_d42ABznnwF5mqde3jcgF4QUFi1MoeAlw"><path d=" M -492 -504 L 492 -504 L 492 480 L -492 480 L -492 -504 Z  M 58.7 165.941 C 58.7 165.941 67.08 140.171 88.64 127.531 C 110.2 114.891 136.78 120.181 136.78 120.181 C 136.78 120.181 128.4 145.951 106.84 158.591 C 85.28 171.231 58.7 165.941 58.7 165.941 Z " fill-rule="evenodd" fill="rgb(255,255,255)"/></clipPath><g clip-path="url(#_clipPath_d42ABznnwF5mqde3jcgF4QUFi1MoeAlw)"><mask id="_mask_PZ9XRW3L359iS5hZlCAIkVndD9luZvVw" x="-200%" y="-200%" width="400%" height="400%"><rect x="-200%" y="-200%" width="400%" height="400%" style="fill:white;"/><path d=" M 58.7 165.941 C 58.7 165.941 67.08 140.171 88.64 127.531 C 110.2 114.891 136.78 120.181 136.78 120.181 C 136.78 120.181 128.4 145.951 106.84 158.591 C 85.28 171.231 58.7 165.941 58.7 165.941 Z " fill="black" stroke="none"/></mask><path d=" M 58.7 165.941 C 58.7 165.941 67.08 140.171 88.64 127.531 C 110.2 114.891 136.78 120.181 136.78 120.181 C 136.78 120.181 128.4 145.951 106.84 158.591 C 85.28 171.231 58.7 165.941 58.7 165.941 Z " fill="none" mask="url(#_mask_PZ9XRW3L359iS5hZlCAIkVndD9luZvVw)" vector-effect="non-scaling-stroke" stroke-width="16" stroke="rgb(243,0,1)" stroke-opacity="100" stroke-linejoin="miter" stroke-linecap="butt" stroke-miterlimit="10"/><path d=" M 58.7 165.941 C 58.7 165.941 67.08 140.171 88.64 127.531 C 110.2 114.891 136.78 120.181 136.78 120.181 C 136.78 120.181 128.4 145.951 106.84 158.591 C 85.28 171.231 58.7 165.941 58.7 165.941 Z " fill="none"/></g><path d=" M 58.7 165.941 C 58.7 165.941 67.08 140.171 88.64 127.531 C 110.2 114.891 136.78 120.181 136.78 120.181 C 136.78 120.181 128.4 145.951 106.84 158.591 C 85.28 171.231 58.7 165.941 58.7 165.941 Z " fill="none"/><circle vector-effect="non-scaling-stroke" cx="122.82999999999997" cy="129.34087327447224" r="37.08999999999999" fill="none" stroke-width="8" stroke="rgb(243,0,1)" stroke-opacity="100" stroke-linejoin="miter" stroke-linecap="butt" stroke-miterlimit="10"/></g></g></g></g></svg>