<?xml version="1.0" encoding="UTF-8" standalone="no"?><!-- Generator: Gravit.io --><svg xmlns="http://www.w3.org/2000/svg" xmlns:xlink="http://www.w3.org/1999/xlink" style="isolation:isolate" viewBox="0 0 246 246" width="246pt" height="246pt"><defs><clipPath id="_clipPath_SFws3feyz7XADBPA4YvrEp9Xsvr0Kud5"><rect width="246" height="246"/></clipPath></defs><g clip-path="url(#_clipPath_SFws3feyz7XADBPA4YvrEp9Xsvr0Kud5)"><rect x="0" y="0" width="246" height="246" transform="matrix(1,0,0,1,0,0)" fill="rgb(41,37,45)"/><g><mask id="_mask_cbHNAnXBpBK2xkAxL2fRg6lWMqRuAjE7" x="-200%" y="-200%" width="400%" height="400%"><rect x="-200%" y="-200%" width="400%" height="400%" style="fill:white;"/><path d=" M 187.3 177.081 C 187.3 177.081 160.79 182.711 139.07 170.361 C 117.35 158.011 108.63 132.351 108.63 132.351 C 108.63 132.351 135.14 126.721 156.86 139.071 C 178.58 151.421 187.3 177.081 187.3 177.081 Z " fill="black" stroke="none"/></mask><path d=" M 187.3 177.081 C 187.3 177.081 160.79 182.711 139.07 170.361 C 117.35 158.011 108.63 132.351 108.63 132.351 C 108.63 132.351 135.14 126.721 156.86 139.071 C 178.58 151.421 187.3 177.081 187.3 177.081 Z " fill="none" mask="url(#_mask_cbHNAnXBpBK2xkAxL2fRg6lWMqRuAjE7)" vector-effect="non-scaling-stroke" stroke-width="16" stroke="rgb(243,0,1)" stroke-linejoin="miter" stroke-linecap="butt" stroke-miterlimit="10"/><path d=" M 187.3 177.081 C 187.3 177.081 160.79 182.711 139.07 170.361 C 117.35 158.011 108.63 132.351 108.63 132.351 C 108.63 132.351 135.14 126.721 156.86 139.071 C 178.58 151.421 187.3 177.081 187.3 177.081 Z " fill="none"/><mask id="_mask_FDnHvAuvcdIp85qcCjqlj9AUqwtOlHKU" x="-200%" y="-200%" width="400%" height="400%"><rect x="-200%" y="-200%" width="400%" height="400%" style="fill:white;"/><path d=" M 121.8 66.961 C 121.8 66.961 139.93 87.101 140.09 112.091 C 140.25 137.081 122.39 157.461 122.39 157.461 C 122.39 157.461 104.26 137.321 104.1 112.331 C 103.94 87.341 121.8 66.961 121.8 66.961 Z " fill="black" stroke="none"/></mask><path d=" M 121.8 66.961 C 121.8 66.961 139.93 87.101 140.09 112.091 C 140.25 137.081 122.39 157.461 122.39 157.461 C 122.39 157.461 104.26 137.321 104.1 112.331 C 103.94 87.341 121.8 66.961 121.8 66.961 Z " fill="none" mask="url(#_mask_FDnHvAuvcdIp85qcCjqlj9AUqwtOlHKU)" vector-effect="non-scaling-stroke" stroke-width="16" stroke="rgb(243,0,1)" stroke-linejoin="miter" stroke-linecap="butt" stroke-miterlimit="10"/><path d=" M 121.8 66.961 C 121.8 66.961 139.93 87.101 140.09 112.091 C 140.25 137.081 122.39 157.461 122.39 157.461 C 122.39 157.461 104.26 137.321 104.1 112.331 C 103.94 87.341 121.8 66.961 121.8 66.961 Z " fill="none"/><mask id="_mask_tP4c4L7DYIoTuN4fckcKjDFbyMweuZ00" x="-200%" y="-200%" width="400%" height="400%"><rect x="-200%" y="-200%" width="400%" height="400%" style="fill:white;"/><path d=" M 58.7 177.941 C 58.7 177.941 67.08 152.171 88.64 139.531 C 110.2 126.891 136.78 132.181 136.78 132.181 C 136.78 132.181 128.4 157.951 106.84 170.591 C 85.28 183.231 58.7 177.941 58.7 177.941 Z " fill="black" stroke="none"/></mask><path d=" M 58.7 177.941 C 58.7 177.941 67.08 152.171 88.64 139.531 C 110.2 126.891 136.78 132.181 136.78 132.181 C 136.78 132.181 128.4 157.951 106.84 170.591 C 85.28 183.231 58.7 177.941 58.7 177.941 Z " fill="none" mask="url(#_mask_tP4c4L7DYIoTuN4fckcKjDFbyMweuZ00)" vector-effect="non-scaling-stroke" stroke-width="16" stroke="rgb(243,0,1)" stroke-linejoin="miter" stroke-linecap="butt" stroke-miterlimit="10"/><path d=" M 58.7 177.941 C 58.7 177.941 67.08 152.171 88.64 139.531 C 110.2 126.891 136.78 132.181 136.78 132.181 C 136.78 132.181 128.4 157.951 106.84 170.591 C 85.28 183.231 58.7 177.941 58.7 177.941 Z " fill="none"/><circle vector-effect="non-scaling-stroke" cx="122.82999999999998" cy="141.34087327447224" r="37.09" fill="none" stroke-width="8" stroke="rgb(243,0,1)" stroke-linejoin="miter" stroke-linecap="butt" stroke-miterlimit="10"/></g></g></svg>